<?xml version="1.0" encoding="utf-8"?>
<svg viewBox="1.4625 0 92.9288 140.3697" width="92.9288" height="140.3697" xmlns="http://www.w3.org/2000/svg">
  <path d="M 63.294 56.25 C 74.075 66.443 77.881 81.455 56.612 94.72 C 59.602 90.668 61.252 86.666 61.627 82.648 C 62.395 74.006 57.004 66.966 51.058 60.644 C 42.352 51.398 41.698 42.463 49.016 32.547 C 47.514 45.583 55.763 49.128 63.294 56.25 Z M 39.869 104.047 C 44.965 93.315 45.864 87.352 33.139 75.313 C 29.675 72.03 26.996 68.697 25.151 65.365 C 22.782 70.658 20.903 81.88 27.813 88.349 C 32.485 92.71 38.921 95.34 39.869 104.047 Z M 49.262 62.343 C 42.254 54.894 37.173 44.439 47.04 31.077 C 20.299 41.515 18.763 58.324 34.821 73.516 C 48.363 86.307 47.661 93.38 42.107 105.109 C 68.325 85.768 59.128 72.83 49.262 62.343 Z" data-fill-palette-color="accent" style="fill: rgb(255, 255, 255);" transform="matrix(1, 0, 0, 1, 0, -8.881784197001252e-16)"/>
</svg>