<!--?xml version="1.0" standalone="no"?-->
              <svg id="sw-js-blob-svg" viewBox="0 0 100 100" xmlns="http://www.w3.org/2000/svg" version="1.1">
                 
                    <defs> 
                     
                        <linearGradient id="sw-gradient" x1="0" x2="1" y1="1" y2="0">
                          
                            <stop id="stop1" stop-color="rgba(0, 0, 0, 1)" offset="0%"></stop>
                        
                            <stop id="stop2" stop-color="rgba(251, 31, 46.371, 1)" offset="100%"></stop>
                        </linearGradient>
                    </defs>
                 
                <path fill="url(#sw-gradient)" d="M22.5,-35.7C29.2,-30.7,34.7,-24.5,36.2,-17.6C37.7,-10.7,35.2,-3,34.2,5C33.2,13,33.6,21.3,29.9,26.2C26.1,31.1,18.1,32.7,11,32.6C3.9,32.5,-2.3,30.7,-8.8,29.2C-15.3,27.6,-22.2,26.4,-25.2,22.2C-28.2,18,-27.4,10.9,-27.2,4.6C-27,-1.6,-27.2,-7.1,-26.2,-13C-25.1,-18.9,-22.7,-25.2,-18.1,-31.2C-13.5,-37.1,-6.8,-42.7,0.6,-43.6C7.9,-44.5,15.8,-40.7,22.5,-35.7Z" width="100%" height="100%" transform="translate(50 50)" stroke-width="0" style="transition: all 0.3s ease 0s;" stroke="url(#sw-gradient)"></path>
                  <text x="35%" y="50%" fill="white" stroke-width="2" font-size="8" font-family="Raleway-Bold, Raleway" >RaspPlayer</text>
              </svg>