<svg xmlns="http://www.w3.org/2000/svg" version="1.1" xmlns:xlink="http://www.w3.org/1999/xlink" xmlns:svgjs="http://svgjs.dev/svgjs" width="1000" height="1000" viewBox="0 0 1000 1000"><rect width="1000" height="1000" fill="#ffffff"></rect><g transform="matrix(0.7,0,0,0.7,149.57575757575756,450.42938418417)"><svg viewBox="0 0 396 56" data-background-color="#5e1914" preserveAspectRatio="xMidYMid meet" height="141" width="1000" xmlns="http://www.w3.org/2000/svg" xmlns:xlink="http://www.w3.org/1999/xlink"><g id="tight-bounds" transform="matrix(1,0,0,1,0.2400000000000091,0.1251720940879295)"><svg viewBox="0 0 395.52 55.749655811824155" height="55.749655811824155" width="395.52"><g><svg viewBox="0 0 452.8473007477378 63.8301" height="55.749655811824155" width="395.52"><g><svg viewBox="0 0 452.8473007477378 63.8301" height="63.8301" width="452.8473007477378"><g id="textblocktransform"><svg viewBox="0 0 452.8473007477378 63.8301" height="63.8301" width="452.8473007477378" id="textblock"><g><svg viewBox="0 0 452.8473007477378 63.8301" height="63.8301" width="452.8473007477378"><g><svg><g></g><g></g></svg></g><g><svg><g></g><g><svg></svg></g></svg></g><g id="text-0"><svg viewBox="0 0 452.8473007477378 63.8301" height="63.8301" width="452.8473007477378"><g><svg xmlns="http://www.w3.org/2000/svg" xmlns:xlink="http://www.w3.org/1999/xlink" version="1.1" x="0" y="0" viewBox="24.761855407245655 5 59.58264309935908 90" enable-background="new 0 0 100 100" xml:space="preserve" width="42.257400747737776" height="63.8301" class="icon-z$-0" data-fill-palette-color="accent" id="z$-0"><g fill="#ff908b" data-fill-palette-color="accent"><path d="M73.76 35.603C86.875 48 91.5 66.25 65.633 82.379c3.64-4.928 5.654-9.794 6.096-14.669 0.951-10.516-5.606-19.072-12.835-26.752C48.298 29.7 47.51 18.84 56.413 6.782 54.578 22.641 64.6 26.944 73.76 35.603zM45.288 93.716c6.184-13.053 7.276-20.302-8.197-34.939-4.204-3.977-7.451-8.029-9.71-12.086-2.881 6.435-5.164 20.081 3.244 27.935C36.312 79.938 44.125 83.125 45.288 93.716zM56.709 43.014C48.183 33.954 41.999 21.253 54 5 21.497 17.692 19.625 38.125 39.151 56.597 55.603 72.158 54.75 80.75 48 95 79.875 71.5 68.709 55.764 56.709 43.014z" fill="#000000" data-fill-palette-color="accent"></path></g></svg></g><g transform="matrix(1,0,0,1,57.32730074773778,8.230678415300549)"><svg width="395.52" viewBox="5.35 -38.6 329.38 39.45" height="47.368743169398904" data-palette-color="#ed1703"><path d="M27.3 0L17.55-16.05 10.2-16.05 10.2 0 5.35 0 5.35-37.9 18.6-37.9Q31-37.9 31-26.9L31-26.9Q31-22.55 28.93-19.88 26.85-17.2 22.7-16.4L22.7-16.4 32.85 0 27.3 0ZM10.2-33.65L10.2-20.3 18.6-20.3Q26-20.3 26.05-26.9L26.05-26.9Q26.05-30.4 24.2-32.02 22.35-33.65 18.6-33.65L18.6-33.65 10.2-33.65ZM65.6 0L61.5-11.05 45.7-11.05 41.65 0 36.65 0 50.9-38.35 56.3-38.35 70.6 0 65.6 0ZM47.35-15.4L59.85-15.4 53.6-32.3 47.35-15.4ZM88 0.85Q80.75 0.85 75.05-1.85L75.05-1.85 75.05-6.45Q80.8-3.4 88-3.4L88-3.4Q92.15-3.4 94.07-5.15 96-6.9 96-9.75L96-9.75Q96-12.45 94.22-13.8 92.45-15.15 89-16.15L89-16.15 85.6-17.1Q82.7-17.95 80.65-19.05 78.6-20.15 77.22-22.23 75.85-24.3 75.85-27.65L75.85-27.65Q75.85-33 78.97-35.8 82.1-38.6 87.85-38.6L87.85-38.6Q91.2-38.6 93.75-37.98 96.3-37.35 99.05-36.1L99.05-36.1 99.05-31.6Q93.95-34.35 87.85-34.35L87.85-34.35Q84.15-34.35 82.45-32.63 80.75-30.9 80.75-27.9L80.75-27.9Q80.8-25.15 82.42-23.85 84.05-22.55 87.5-21.55L87.5-21.55 90.95-20.6Q94-19.75 96.12-18.63 98.25-17.5 99.57-15.38 100.9-13.25 100.9-9.85L100.9-9.85Q100.85-4.9 97.42-2.02 94 0.85 88 0.85L88 0.85ZM122.64-37.9Q135.04-37.9 135.04-26.6L135.04-26.6Q135.04-21.1 131.94-18.23 128.84-15.35 122.64-15.35L122.64-15.35 114.24-15.35 114.24 0 109.39 0 109.39-37.9 122.64-37.9ZM130.09-26.6Q130.09-30.3 128.24-31.98 126.39-33.65 122.64-33.65L122.64-33.65 114.24-33.65 114.24-19.65 122.64-19.65Q130.04-19.65 130.09-26.6L130.09-26.6ZM155.64-37.9Q168.04-37.9 168.04-26.6L168.04-26.6Q168.04-21.1 164.94-18.23 161.84-15.35 155.64-15.35L155.64-15.35 147.24-15.35 147.24 0 142.39 0 142.39-37.9 155.64-37.9ZM163.09-26.6Q163.09-30.3 161.24-31.98 159.39-33.65 155.64-33.65L155.64-33.65 147.24-33.65 147.24-19.65 155.64-19.65Q163.04-19.65 163.09-26.6L163.09-26.6ZM180.24-4.35L196.09-4.35 196.09 0 175.39 0 175.39-37.9 180.24-37.9 180.24-4.35ZM228.39 0L224.29-11.05 208.49-11.05 204.44 0 199.44 0 213.69-38.35 219.09-38.35 233.39 0 228.39 0ZM210.14-15.4L222.64-15.4 216.39-32.3 210.14-15.4ZM268.83-37.9L254.88-14.65 254.88 0 250.08 0 250.08-14.65 236.18-37.9 241.18-37.9 252.48-18.75 263.83-37.9 268.83-37.9ZM280.53-4.2L298.88-4.2 298.88 0 275.68 0 275.68-37.9 298.63-37.9 298.63-33.7 280.53-33.7 280.53-21.15 296.13-21.15 296.13-16.95 280.53-16.95 280.53-4.2ZM329.18 0L319.43-16.05 312.08-16.05 312.08 0 307.23 0 307.23-37.9 320.48-37.9Q332.88-37.9 332.88-26.9L332.88-26.9Q332.88-22.55 330.8-19.88 328.73-17.2 324.58-16.4L324.58-16.4 334.73 0 329.18 0ZM312.08-33.65L312.08-20.3 320.48-20.3Q327.88-20.3 327.93-26.9L327.93-26.9Q327.93-30.4 326.08-32.02 324.23-33.65 320.48-33.65L320.48-33.65 312.08-33.65Z" opacity="1" transform="matrix(1,0,0,1,0,0)" fill="#000000" class="wordmark-text-0" data-fill-palette-color="primary"></path></svg></g></svg></g></svg></g></svg></g></svg></g></svg></g><defs></defs></svg><rect width="395.52" height="55.749655811824155" fill="none" stroke="none" visibility="hidden"></rect></g></svg></g></svg>